<?xml version="1.0" standalone="no"?>
<svg version="1.0" xmlns="http://www.w3.org/2000/svg"
     width="512.000000pt" height="512.000000pt" viewBox="0 0 512.000000 512.000000"
     preserveAspectRatio="xMidYMid meet">
  <g transform="translate(0.000000,512.000000) scale(0.100000,-0.100000)"
     fill="#000000" stroke="none">
    <path d="M1395 5113 c-351 -42 -660 -181 -899 -405 -245 -229 -392 -492 -468
-838 l-23 -105 0 -1170 c0 -643 3 -1199 7 -1235 24 -230 117 -477 259 -690 67
-101 244 -287 339 -357 228 -168 476 -267 760 -302 44 -6 560 -9 1235 -7 1287
3 1210 -1 1440 71 239 74 436 195 620 379 182 182 296 366 375 605 78 234 75
183 75 1481 0 635 -4 1187 -8 1226 -4 39 -18 116 -32 170 -70 292 -197 517
-410 729 -221 222 -456 350 -775 423 l-115 26 -1175 2 c-646 0 -1188 -1 -1205
-3z m225 -1646 c30 -16 51 -37 68 -68 23 -43 23 -47 17 -244 -10 -279 -10
-279 3 -271 4 2 41 7 82 10 41 3 109 10 150 16 224 29 279 29 325 0 45 -28 62
-49 74 -95 29 -114 14 -189 -51 -238 -37 -29 -56 -33 -173 -42 -168 -13 -267
-21 -379 -31 -28 -2 -52 -6 -54 -9 -3 -2 -6 -39 -8 -82 -1 -43 -5 -140 -8
-216 l-6 -138 328 6 c345 7 364 5 410 -38 43 -40 60 -86 57 -162 -3 -112 -29
-162 -98 -190 -46 -19 -124 -21 -1209 -41 l-376 -6 -42 23 c-61 34 -90 89 -90
170 0 87 15 133 55 174 42 41 64 45 288 50 93 1 173 7 177 11 7 8 12 78 25
394 6 129 21 429 40 809 10 189 54 230 251 231 87 0 107 -3 144 -23z m2042
-56 c42 -14 104 -77 115 -118 7 -23 8 -238 8 -1153 0 -1 57 -4 128 -7 l127 -5
-5 163 c-4 90 -8 198 -10 239 -2 41 -7 176 -10 300 l-7 225 33 49 c43 63 95
88 192 89 80 0 114 -13 160 -61 42 -44 55 -93 57 -217 1 -60 3 -150 5 -200 5
-116 15 -465 20 -671 4 -147 3 -164 -16 -199 -23 -42 -47 -66 -94 -92 -34 -20
-118 -21 -520 -9 -238 7 -319 9 -780 21 -132 3 -257 10 -278 16 -77 21 -147
114 -141 189 1 14 5 117 9 230 3 113 8 234 10 270 2 36 7 146 10 245 9 256 11
289 28 321 33 65 98 96 185 90 72 -5 112 -24 149 -73 27 -35 28 -42 27 -137 0
-87 -10 -328 -20 -506 -13 -234 -4 -249 159 -254 l95 -3 -4 558 c-4 459 -2
564 9 591 19 46 73 95 120 111 48 16 189 15 239 -2z"/>
  </g>
</svg>
