<svg xmlns="http://www.w3.org/2000/svg" width="1024" height="1024"><defs><linearGradient id="a" x1="1.159" x2=".5" y1="-.337" y2=".649" gradientUnits="objectBoundingBox" spreadMethod="pad"><stop offset="0" stop-color="#6cadff"/><stop offset="1" stop-color="#fff" stop-opacity="0"/></linearGradient><linearGradient id="b" x1=".105" x2=".705" y1="-.206" y2="1" gradientUnits="objectBoundingBox" spreadMethod="pad"><stop offset="0" stop-color="#6cadff"/><stop offset="1" stop-color="#fff" stop-opacity="0"/></linearGradient><linearGradient id="c" x1="1.002" x2=".388" y1="-.978" y2="1.047" gradientUnits="objectBoundingBox" spreadMethod="pad"><stop offset="0" stop-color="#6cadff"/><stop offset="1" stop-color="#fff"/></linearGradient><linearGradient id="d" x1=".5" x2=".5" y1="-.279" y2="1" gradientUnits="objectBoundingBox" spreadMethod="pad"><stop offset="0" stop-color="#6cadff"/><stop offset="1" stop-color="#fff" stop-opacity="0"/></linearGradient><linearGradient id="e" x1=".5" x2=".5" y1="-.279" y2="1" gradientUnits="objectBoundingBox" spreadMethod="pad"><stop offset="0" stop-color="#6cadff"/><stop offset="1" stop-color="#fff" stop-opacity="0"/></linearGradient><linearGradient id="f" x1=".5" x2=".5" y1="-2.212" y2="1" gradientUnits="objectBoundingBox" spreadMethod="pad"><stop offset="0" stop-color="#d2d2d2"/><stop offset="1" stop-color="#d2d2d2" stop-opacity="0"/></linearGradient><linearGradient id="g" x1=".348" x2=".644" y1=".45" y2=".554" gradientUnits="objectBoundingBox" spreadMethod="pad"><stop offset="0" stop-color="#ebebeb" stop-opacity="0"/><stop offset="1" stop-color="#a0a0a0"/></linearGradient><linearGradient id="h" x1="0" x2="1" y1=".5" y2=".5" gradientUnits="objectBoundingBox" spreadMethod="pad"><stop offset="0" stop-color="#fff"/><stop offset="1" stop-color="#fff"/></linearGradient><linearGradient id="i" x1="0" x2="1" y1=".5" y2=".5" gradientUnits="objectBoundingBox" spreadMethod="pad"><stop offset="0" stop-color="#dff6f4"/><stop offset="1" stop-color="#c1deff"/></linearGradient></defs><path fill="url(#a)" d="m755 736.1-3.1-8.7-2.1-9.8-.8-10.1.4-10.1 1.2-6.7 1.8-6.3 2.5-5.8 3.4-5.4 4.1-4.7 5-4 2.1 1.6 1.4 2 .7 2.4v2.6l-2 16.2-.2 12.5.7 5.5 1.4 3.1 1.3 1.1 1.8-.1 2.8-1.6 4.2-4.5 7-10.4 25.8-45.4 7.2-10.8 8-10.4 6.7-6.8 6.5-5.1 6.2-3.5 6.7-2.4 6-1 5.5.2 5.2 1.4 4.4 2.5 3.5 3.7 2.6 4.5 1.5 5.5.3 7.1-1 6.9-2.6 8.3-4.6 9.9-13.5 21.7-4.4 7.8-3.8 7.7-2.9 7.6-1.1 5.8.2 3.5 1.3 2.3 2.4 1.5 3.1.3 3.1-.6 6.7-2.5 13.7-6.2 6.6-2.1 4.5-.7 4.3.3 4.4 1.3 3.4 2.2 2.8 2.7 2.1 3.3 2.1 5.6 1.1 6.4v6.5l-.8 6.3-2.7 9.2-4.4 9.3-5.9 8.7-7.4 7.8-5.6 4.4-6 3.7-6.7 2.8-6.9 1.9-7.4.8-8-.4-12.7-2.3-14.3-3.7-14.3-4.9-14.1-6-9.1-4.8-8.2-5.2-7.3-5.5-6.7-6.3-5.2-6.5-3.8-6.8Z"/><path fill="url(#b)" d="m202.5 678.5-8.2-4.4-8.1-5.9-7.4-6.9-6.5-7.8-5.2-8.7-3.3-9-1.2-6.2v-6.2l1-6.3 2.6-.2 2.4.5 2.1 1.2 1.7 2 9.5 13.3 8.2 9.4 4.2 3.6 3.1 1.4 1.7-.1 1.3-1.3 1-3 .1-6.2-1.8-12.4-11.4-50.8-2-12.9-.9-13.1.4-9.6 1.4-8.1 2.3-6.7 3.3-6.3 3.8-4.8 4.2-3.5 4.9-2.4 4.9-1 5.1.2 4.8 1.6 4.9 3.2 4.9 5 3.9 5.8 3.7 7.9 3.2 10.4 4.5 25.2 2 8.7 2.4 8.3 2.9 7.5 3.1 5.1 2.5 2.4 2.5.8 2.8-.4 2.5-1.9 1.8-2.6 3.4-6.4 6-13.7 3.4-6 2.9-3.4 3.4-2.6 4.1-1.9 4.1-.8 3.8.2 3.8 1 5.4 2.7 5 4.1 4.4 4.8 3.6 5.2 3.8 7.1 4.1 9.2 3.6 10 3.1 10.8 2.2 11.2.9 10.9-.2 7.2-.9 6.6-1.7 6.1-2.7 5.7-3.6 4.9-4.8 4.1-5.6 3.3-6.7 3.1-7.9 2.7-12.4 3.2-13.7 2.2-14.2 1.4-14.1.4-14-.6-12.7-1.5L212 682l-9.3-3.3Z"/><path fill="url(#c)" d="m811.1 522.5-3.8 5.4-3.2 6.1-2.2 6.4-1.1 6.5.1 6.7 1.7 6.6 2.2 3.9 8.3 8.4 1.7 3.6.6 5.5-1.2 6.1-2.1 5.8-2.9 5.5-6.2 9.8-7 9.2-7.8 8.5 4.5 4.6 3 5.4 1.6 6.1v6.4l-1.5 6.2-2.5 5.9-3.3 5.4-4.2 4.8-3.1 2.9-3.8 2.1-3.9.4-3.9-.4-12.6-2.8-12.2-3.9-11.8-5-5.4-2.9-4.9-3.4-4.1-4.3-2.7-5.1-.8-4.2.2-2.9 1-2.1 2.6-2.6 8.5-5.2 2.8-3.1 2.1-4.7 1.3-5.1 1.6-10.4 1.8-17.8 1.5-5.7 1.8-3.2 2.5-2.5 3.6-1.8 14.4-2.7 4.6-2.1 3.8-3 3.1-3.7 3.7-6.4 7.7-17 2.1-3.8 2.5-3.3 3.1-2.7 4-2.4 11.9-6.1 2.3-1.9Zm-29.5 57.2-3.8 4.8-9.1 12.8-5.2 8.6L758 616l-4.8 10.8-3.9 11.6-1.9 7.9-1.1 7.9-.3 7.9h11.9l1-8 3.6-20.2 3-12.6 4.2-14.1 5.3-14 6.6-13.5Z"/><path fill="url(#d)" d="m287.8 298.8-.7-6.5-2.1-5.9-3.4-5.2-4.5-4.3-5.4-3.1-6.2-1.9-6.5-.3-6.1 1.1-5.7 2.5-5 3.8-3.9 4.8-2.9 5.8-6 .8-5.5 2.2-4.7 3.5-3.7 4.8-2.3 5.7-.7 5.8.9 5.9 2.5 5.5 3.8 4.7 4.8 3.4 5.6 2 6 .6h49.5l4.6-.7 4-1.7 3.5-2.6 2.8-3.4 1.8-3.9 1-4.5-.4-4.7-1.3-4.1-2.4-3.7-3.1-3.1-3.8-2.1Z"/><path fill="url(#e)" d="m492.1 271.7-.4-5.6-1.2-5-2-4.8-4.3-6.4-5.6-5.2-4.3-2.8-4.8-2-5.3-1.4-5.4-.5-5.2.4-5 1.1-7 3.1-6.2 4.6-3.5 3.8-2.8 4.4-2.2 4.9-5.1.6-4.7 1.3-4.3 2.2-3.9 2.8-3.3 3.4-2.7 4-2.1 4.4-1.1 4.7-.5 5.1.6 5.1 1.3 4.7 2.2 4.3 2.9 3.9 3.4 3.3 3.9 2.7 4.4 2 4.7 1.2 5.2.4h61.4l5.7-.7 5.2-2.1 4.4-3.3 3.5-4.2 2.5-5 1.1-5.7-.4-5.7-1.8-5.3-3-4.6-4-3.8-4.8-2.7-5.6-1.4Z"/><path fill="url(#f)" d="m1024 788.4-24.4-16-25.8-15.2-27.1-14.6-28.7-13.8-28.8-12.6-30.1-11.7-31.3-10.8-32.5-10-32.6-8.7-33.6-7.6-34.6-6.7-35.6-5.5-35.6-4.3-36.3-3.1-37.1-1.9-37.9-.7-37.9.7-37.1 1.9-36.4 3.1-35.5 4.3-35.6 5.5-34.6 6.7-33.6 7.6-32.6 8.7-32.5 10-31.3 10.8-30.1 11.7-28.9 12.6-28.6 13.8-27.1 14.6-25.8 15.2-24.4 16Z"/><path fill="url(#g)" d="M281.9 621.7h144.6l145.6 95.1-142.4-2.8Z"/><path fill="#64adff" d="M447 358.7h185.6l8.2.8 7.5 2 6.9 3.3 6.4 4.5 5.3 5.3 4.5 6.3 3.3 7 2 7.5.8 8.2v269.2l-.8 8.2-2 7.5-3.3 7-4.5 6.3-5.3 5.3-6.4 4.5-6.9 3.3-7.5 2.1-8.2.7H447l-8.2-.7-7.6-2.1-6.9-3.3-6.3-4.5-5.4-5.3-4.4-6.3-3.3-7-2.1-7.5-.8-8.2V403.6l.8-8.2 2.1-7.5 3.3-7 4.4-6.3 5.4-5.3 6.3-4.5 6.9-3.3 7.6-2Z"/><path fill="#fff" fill-opacity=".6" d="M448.4 379.1h182.7l5.4.6 5 1.3 4.7 2.2 4.2 3 3.5 3.6 3 4.2 2.2 4.6 1.4 5 .5 5.4v258.4l-.5 5.4-1.4 5-2.2 4.6-3 4.2-3.5 3.6-4.2 3-4.7 2.2-5 1.3-5.4.6H448.4l-5.4-.6-5-1.3-4.7-2.2-4.2-3-3.5-3.6-3-4.2-2.2-4.6-1.4-5-.5-5.4V409l.5-5.4 1.4-5 2.2-4.6 3-4.2 3.5-3.6 4.2-3 4.7-2.2 5-1.3Z"/><path fill="#64adff" d="M599.4 358.1h-32l2.4-6 1-6-.2-6.2-1.3-6-2.6-5.5-3.7-5.3-4.8-4.3-5.2-3.1-5.8-2.1-6.1-.9-6.1.4-6.3 1.6-5.7 2.9-4.8 3.8-4 4.7-3.1 5.4-1.8 5.8-.7 6.4.3 4.9 1.2 4.8 1.9 4.6h-32l-2.5.5-2 1.4-1.3 2-.6 2.5v20.8l.6 2.5 1.3 2 2 1.4 2.5.5h119.2l2.5-.5 2.1-1.4 1.3-2 .5-2.5v-20.7l-.5-2.5-1.3-2-2-1.3Z"/><path fill="#fff" d="M489.3 480.4H453l-2.7-.5-2.1-1.5-1.5-2.1-.6-2.7.6-2.6 1.5-2.2 2.1-1.5 2.7-.5h36.4l2.7.5 2.1 1.5 1.5 2.2.5 2.6-.5 2.7-1.5 2.1-2.1 1.5-2.7.5ZM547 517.1h-96.5l-2.6-.5-2.2-1.5-1.4-2.1-.6-2.7.6-2.7 1.4-2.1 2.2-1.5 2.6-.5H547l2.7.5 2.1 1.5 1.5 2.1.5 2.7-.5 2.7-1.5 2.1-2.1 1.5ZM547 555h-96.5l-2.6-.6-2.2-1.4-1.4-2.2-.6-2.6.6-2.7 1.4-2.2 2.2-1.4 2.6-.6H547l2.7.6 2.1 1.4 1.5 2.2.5 2.7-.5 2.6-1.5 2.2-2.1 1.4Z"/><path fill="url(#h)" d="m557.8 343.2-.6 4.8-1.8 4.3-2.8 3.6-3.7 2.9-4.2 1.7-4.9.7-4.9-.7-4.2-1.7-3.7-2.9-2.9-3.6-1.7-4.3-.7-4.8.7-5 1.7-4.1 2.9-3.7 3.7-2.9 4.2-1.7 4.9-.7 4.9.7 4.2 1.7 3.7 2.9 2.8 3.7 1.8 4.1Z"/><path fill="none" stroke="#77b7ff" stroke-width="19.346" d="m676.1 618.1-.7 10-1.9 9.4-3 8.9-4.2 8.4-5.1 7.7-6 7-6.9 6.1-7.6 5.2-8.2 4.2-8.8 3.2-9.2 1.9-9.8.7-9.8-.7-9.3-1.9-8.7-3.2-8.3-4.2-7.5-5.2-6.9-6.1-6.1-7-5.1-7.7-4.1-8.4-3.1-8.9-1.9-9.4-.6-10 .6-9.9 1.9-9.5 3.1-8.8 4.1-8.5 5.1-7.7 6.1-6.9 6.9-6.2 7.5-5.2 8.3-4.2 8.7-3.1 9.3-1.9 9.8-.7 9.8.7 9.2 1.9 8.8 3.1 8.2 4.2 7.6 5.2 6.9 6.2 6 6.9 5.1 7.7 4.2 8.5 3 8.8 1.9 9.5Z"/><path fill="url(#i)" fill-opacity=".4" d="m669.3 618.1-.6 8.9-1.7 8.3-2.8 7.9-3.8 7.6-4.6 6.8-5.4 6.2-6.2 5.4-6.9 4.6-7.5 3.8-7.9 2.8-8.4 1.7-8.8.6-8.9-.6-8.4-1.7-7.9-2.8-7.5-3.8-6.8-4.6-6.2-5.4-5.5-6.2-4.6-6.8-3.8-7.6-2.8-7.9-1.6-8.3-.6-8.9.6-8.8 1.6-8.4 2.8-7.9 3.8-7.5 4.6-6.8 5.5-6.2 6.2-5.5 6.8-4.6 7.5-3.7 7.9-2.8 8.4-1.7 8.9-.6 8.8.6 8.4 1.7 7.9 2.8 7.5 3.7 6.9 4.6 6.2 5.5 5.4 6.2 4.6 6.8 3.8 7.5 2.8 7.9 1.7 8.4Z"/><path fill="#fff" d="m567.3 626.7-3.5-.5-3-1.2-2.7-2.1-2-2.6-1.3-3-.5-3.5.6-7.1 1.2-5.9 2.5-7.4 2.3-4.9 3.2-4.9 4.2-5 5.4-4.4 6-3.5 6.6-2.5 7.4-1.6 8.4-.6 3.5.5 3.1 1.3 2.6 2.1 2 2.6 1.3 3.1.5 3.5-.5 3.6-1.3 3-2.1 2.7-2.7 2-3 1.3-9.4 1-4.1 1.1-2.9 1.5-3.5 3.2-2 3-2.2 6-1.5 9.8-1.3 3-2.1 2.6-2.6 2.1-3.1 1.2Z"/><path fill="#77b7ff" d="m659.1 700.9 23-24.5 50.4 47.1-23 24.5Z"/><path fill="#77b7ff" d="m651.6 680.5 9.7-10.3 18.7 17.5-9.6 10.3Z"/></svg>
